<?xml version="1.0" encoding="utf-8"?>
<!-- Generator: Adobe Illustrator 19.2.1, SVG Export Plug-In . SVG Version: 6.00 Build 0)  -->
<svg version="1.1" xmlns="http://www.w3.org/2000/svg" xmlns:xlink="http://www.w3.org/1999/xlink" x="0px" y="0px"
	 viewBox="0 0 201 201" style="enable-background:new 0 0 201 201;" xml:space="preserve">
<style type="text/css">
	.st0{fill:none;}
	.st1{display:none;}
	.st2{display:inline;}
	.st3{fill:#FFFFFF;}
	.st4{display:inline;fill:#FFFFFF;}
</style>
<g id="Layer_7">
	<rect x="0.5" y="0.5" class="st0" width="200" height="200"/>
</g>
<g id="Layer_1">
</g>
<g id="Layer_2" class="st1">
	<g class="st2">
		<path class="st3" d="M185,74.4c-1.9-5.3-7.8-8-13.1-6.1c-4.8,1.7-7.4,6.6-6.6,11.5l-14.9,4.6c-0.1-0.4-0.3-0.9-0.4-1.3
			c-2.6-7.1-6.5-13.5-11.5-19c-3.4-3.7-7.3-6.9-11.6-9.5l10.3-17.9c0.9,0.2,1.9,0.1,2.8-0.2c2.7-1,4.1-4,3.1-6.7
			c-1-2.7-4-4.1-6.7-3.1c-2.7,1-4.1,4-3.1,6.7c0.2,0.6,0.6,1.2,1,1.6L124,52.8c-0.9-0.5-1.9-1-2.8-1.4c-6.6-3.1-13.6-4.8-20.8-5.2
			c-5.7-0.3-11.3,0.3-16.8,1.7l-5.4-19c4.7-2.2,7-7.7,5.2-12.7c-1.9-5.3-7.8-8-13.1-6.1c-5.3,1.9-8,7.8-6.1,13.1
			c1.7,4.5,6.2,7.2,10.8,6.7l5.4,19c-0.7,0.2-1.3,0.4-2,0.7c-7.1,2.6-13.5,6.5-19,11.5c-4.2,3.9-7.7,8.4-10.5,13.3l-13.3-7.2
			c0.7-3-0.7-6.2-3.6-7.5c-3.3-1.5-7.2-0.1-8.8,3.2c-1.5,3.3-0.1,7.2,3.2,8.8c2.7,1.2,5.7,0.6,7.6-1.4l13.3,7.2
			c-0.2,0.3-0.3,0.7-0.5,1c-3.1,6.6-4.8,13.6-5.2,20.8c-0.4,7.5,0.7,14.9,3.3,22c1.3,3.5,2.8,6.8,4.7,9.9l-16.4,10.5
			c-2.7-3-7-4.2-11.1-2.8c-5.3,1.9-8,7.8-6.1,13.1c1.9,5.3,7.8,8,13.1,6.1c5.3-1.9,8-7.8,6.1-13.1c0-0.2-0.1-0.3-0.2-0.5l16.4-10.5
			c1.5,2.2,3.1,4.2,5,6.2c4.9,5.3,10.8,9.5,17.3,12.6c4,1.9,8.1,3.2,12.4,4.1l-4.3,24.4c-0.3,0-0.7,0.1-1,0.3c-2.7,1-4.1,4-3.1,6.7
			c1,2.7,4,4.1,6.7,3.1c2.7-1,4.1-4,3.1-6.7c-0.4-1.2-1.3-2.2-2.4-2.8l4.3-24.4c1.7,0.2,3.4,0.4,5,0.5c1,0,2,0.1,2.9,0.1
			c6.5,0,12.9-1.1,19.1-3.4c7.1-2.6,13.5-6.5,19-11.5c1.1-1,2.2-2.2,3.3-3.3l17,14.6c-1.2,2.3-1.3,5.2,0.1,7.6c2.1,3.8,7,5,10.7,2.9
			c3.8-2.1,5-7,2.9-10.7c-2.1-3.8-7-5-10.7-2.9c-0.3,0.2-0.5,0.3-0.8,0.5l-17-14.6c2.8-3.5,5.2-7.3,7.1-11.5
			c3.1-6.6,4.8-13.6,5.2-20.8c0.3-5.9-0.3-11.7-1.8-17.4l15-4.6c2.4,4.3,7.6,6.3,12.4,4.6C184.2,85.6,187,79.7,185,74.4z
			 M126.2,133.2c-4.2,3.8-9,6.8-14.3,8.7c-5.4,2-11,2.8-16.6,2.5c-5.5-0.3-10.8-1.6-15.7-3.9c-5-2.3-9.4-5.6-13.1-9.6
			c-3.8-4.2-6.8-9-8.7-14.3c-2-5.4-2.8-11-2.5-16.6c0.3-5.5,1.6-10.8,3.9-15.7s5.6-9.4,9.6-13.1c4.2-3.8,9-6.8,14.3-8.7
			c4.7-1.7,9.5-2.5,14.4-2.5c0.7,0,1.5,0,2.2,0c5.5,0.3,10.8,1.6,15.7,3.9s9.4,5.6,13.1,9.6c3.8,4.2,6.8,9,8.7,14.3
			c2,5.4,2.8,11,2.5,16.6c-0.3,5.5-1.6,10.8-3.9,15.7C133.5,125,130.3,129.4,126.2,133.2z"/>
		<path class="st3" d="M108.5,78.4c-6.3-3-13.4-3.3-20-0.9C82,79.9,76.7,84.7,73.7,91c-3,6.3-3.3,13.4-0.9,20
			c2.4,6.6,7.2,11.8,13.5,14.8c3.5,1.7,7.3,2.5,11.1,2.5c3,0,6-0.5,8.9-1.6c6.6-2.4,11.8-7.2,14.8-13.5c3-6.3,3.3-13.4,0.9-20
			C119.6,86.6,114.9,81.4,108.5,78.4z M110.4,108.1c-1.6,3.5-4.5,6.1-8,7.3c-3.6,1.3-7.4,1.1-10.9-0.5c-3.5-1.6-6.1-4.5-7.4-8
			c-2.7-7.4,1.1-15.6,8.5-18.2c1.6-0.6,3.2-0.9,4.9-0.9c5.8,0,11.3,3.6,13.4,9.4C112.1,100.8,111.9,104.7,110.4,108.1z"/>
	</g>
</g>
<g id="Layer_6" class="st1">
	<path class="st4" d="M51.8,102.6c1.4,1.4,2.2,3.3,2.2,5.3v58.6c0,2-0.8,3.9-2.2,5.3c-1.4,1.4-3.3,2.2-5.3,2.2s-3.9-0.8-5.3-2.2
		c-1.4-1.4-2.2-3.3-2.2-5.3v-58.6c0-2,0.8-3.9,2.2-5.3c1.4-1.4,3.3-2.2,5.3-2.2S50.4,101.2,51.8,102.6z M118.5,89.2
		c-2,0-3.9,0.8-5.3,2.2c-1.4,1.4-2.2,3.3-2.2,5.3v69.8c0,2,0.8,3.9,2.2,5.3s3.3,2.2,5.3,2.2s3.9-0.8,5.3-2.2
		c1.4-1.4,2.2-3.3,2.2-5.3V96.6c0-2-0.8-3.9-2.2-5.3C122.3,89.9,120.5,89.2,118.5,89.2z M82.5,77.9c-2,0-3.9,0.8-5.3,2.2
		c-1.4,1.4-2.2,3.3-2.2,5.3v81.1c0,2,0.8,3.9,2.2,5.3c1.4,1.4,3.3,2.2,5.3,2.2s3.9-0.8,5.3-2.2s2.2-3.3,2.2-5.3V85.3
		c0-2-0.8-3.9-2.2-5.3C86.4,78.7,84.5,77.9,82.5,77.9z M159.7,68.8c-1.4-1.4-3.3-2.2-5.3-2.2s-3.9,0.8-5.3,2.2
		c-1.4,1.4-2.2,3.3-2.2,5.3v92.3c0,2,0.8,3.9,2.2,5.3c1.4,1.4,3.3,2.2,5.3,2.2s3.9-0.8,5.3-2.2c1.4-1.4,2.2-3.3,2.2-5.3V74.1
		C161.9,72.1,161.1,70.2,159.7,68.8z M46.5,74.8c4,0,7.2-3.2,7.2-7.2c0-1-0.2-2-0.6-2.9l23.7-14.2c1.3,1.7,3.4,2.7,5.6,2.7
		c2.9,0,5.4-1.7,6.5-4.2l22.3,6.8c-0.1,0.3-0.1,0.7-0.1,1.1c0,4,3.2,7.2,7.2,7.2c4,0,7.2-3.2,7.2-7.2c0-1.1-0.3-2.2-0.7-3.2l24-14.8
		c1.3,1.6,3.3,2.6,5.6,2.6c4,0,7.2-3.2,7.2-7.2s-3.2-7.2-7.2-7.2c-4,0-7.2,3.2-7.2,7.2c0,1.1,0.2,2.1,0.6,3l-24,14.8
		c-1.3-1.5-3.3-2.5-5.4-2.5c-3,0-5.5,1.8-6.6,4.3l-22.3-6.8c0.1-0.4,0.1-0.8,0.1-1.2c0-4-3.2-7.2-7.2-7.2c-4,0-7.2,3.2-7.2,7.2
		c0,1,0.2,2,0.6,2.9L52.2,63.1c-1.3-1.7-3.4-2.7-5.6-2.7c-4,0-7.2,3.2-7.2,7.2S42.6,74.8,46.5,74.8z"/>
</g>
<g id="Layer_5" class="st1">
	<path class="st4" d="M160,79.5c-0.6-4-1.5-8-2.9-11.8c-1.4-3.8-3.1-7.5-5.2-11c-2-3.4-4.4-6.6-7.1-9.5c-2.6-2.9-5.5-5.5-8.6-7.8
		c-3.1-2.3-6.4-4.3-9.9-5.9c-3.5-1.6-7.1-3-10.8-3.9c-3.8-1-7.6-1.6-11.5-1.8c-3.9-0.2-7.9-0.1-11.8,0.5c-4,0.6-8,1.5-11.8,2.9
		c-3.8,1.4-7.5,3.1-11,5.2c-3.4,2-6.6,4.4-9.5,7.1c-2.9,2.6-5.5,5.5-7.8,8.6c-2.3,3.1-4.3,6.4-5.9,9.9c-1.6,3.5-3,7.1-3.9,10.8
		c-1,3.8-1.6,7.6-1.8,11.5c-0.2,3.9-0.1,7.9,0.5,11.8c0.6,4,1.5,8,2.9,11.8c1.4,3.8,3.1,7.5,5.2,11c2,3.4,4.4,6.6,7.1,9.5
		c2.6,2.9,5.5,5.5,8.6,7.8c3.1,2.3,6.4,4.3,9.9,5.9c3.5,1.6,7.1,3,10.8,3.9c3.8,1,7.6,1.6,11.5,1.8c1.2,0.1,2.3,0.1,3.5,0.1
		c2.8,0,5.6-0.2,8.3-0.6c1.8-0.3,3.6-0.6,5.4-1l8,22.5c0.6,1.7,1.8,3,3.4,3.8c0.9,0.4,1.9,0.6,2.9,0.6c0.8,0,1.5-0.1,2.2-0.4
		c1.7-0.6,3-1.8,3.8-3.4c0.8-1.6,0.9-3.4,0.3-5.1l-8-22.5c1.6-0.8,3.2-1.7,4.8-2.6c3.4-2,6.6-4.4,9.5-7.1c2.9-2.6,5.5-5.5,7.8-8.6
		c2.3-3.1,4.3-6.4,5.9-9.9c1.6-3.5,3-7.1,3.9-10.8c1-3.8,1.6-7.6,1.8-11.5C160.7,87.4,160.6,83.4,160,79.5z M147.1,90.5
		c-0.2,3-0.6,6-1.4,8.9c-0.7,2.9-1.8,5.7-3.1,8.4c-1.3,2.7-2.8,5.3-4.6,7.7c-1.8,2.4-3.8,4.7-6,6.7c-2.3,2.1-4.7,3.9-7.3,5.5
		c-2.7,1.6-5.6,3-8.6,4.1c-3,1.1-6.1,1.8-9.2,2.3c-3,0.4-6.1,0.6-9.2,0.4c-3-0.2-6-0.6-8.9-1.4c-2.9-0.7-5.7-1.8-8.4-3.1
		c-2.7-1.3-5.3-2.8-7.7-4.6c-2.4-1.8-4.7-3.8-6.7-6c-2.1-2.3-3.9-4.7-5.5-7.3c-1.6-2.7-3-5.6-4.1-8.6c-1.1-3-1.8-6.1-2.3-9.2
		c-0.4-3-0.6-6.1-0.4-9.2c0.2-3,0.6-6,1.4-8.9c0.7-2.9,1.8-5.7,3.1-8.4c1.3-2.7,2.8-5.3,4.6-7.7c1.8-2.4,3.8-4.7,6-6.7
		c2.3-2.1,4.7-3.9,7.3-5.5c2.7-1.6,5.6-3,8.6-4.1s6.1-1.8,9.2-2.3c2.1-0.3,4.3-0.5,6.5-0.5c0.9,0,1.8,0,2.7,0.1c3,0.2,6,0.6,8.9,1.4
		c2.9,0.7,5.7,1.8,8.4,3.1s5.3,2.8,7.7,4.6c2.4,1.8,4.7,3.8,6.7,6c2.1,2.3,3.9,4.7,5.5,7.3c1.6,2.7,3,5.6,4.1,8.6
		c1.1,3,1.8,6.1,2.3,9.2C147.2,84.4,147.3,87.5,147.1,90.5z M132.9,73.5c0,3.6-2.9,6.5-6.5,6.5c-1,0-1.9-0.2-2.8-0.6l-11.1,22.5
		c1.7,1.2,2.9,3.1,2.9,5.4c0,3.6-2.9,6.5-6.5,6.5s-6.5-2.9-6.5-6.5c0-2.2,1.1-4.2,2.8-5.3L93.7,79.6C93,79.9,92.2,80,91.5,80
		c-0.7,0-1.4-0.1-2-0.3l-10.9,23c1.2,1.2,2,2.8,2,4.7c0,3.6-2.9,6.5-6.5,6.5c-3.6,0-6.5-2.9-6.5-6.5s2.9-6.5,6.5-6.5
		c1.1,0,2.2,0.3,3.1,0.8l10.8-22.7c-1.8-1.2-3-3.2-3-5.4c0-3.6,2.9-6.5,6.5-6.5s6.5,2.9,6.5,6.5c0,2.2-1.1,4.2-2.8,5.3l11.5,22.4
		c0.7-0.2,1.4-0.4,2.2-0.4c0.7,0,1.4,0.1,2.1,0.3l11.2-22.7c-1.4-1.2-2.3-3-2.3-4.9c0-3.6,2.9-6.5,6.5-6.5
		C129.9,67,132.9,69.9,132.9,73.5z"/>
</g>
<g id="Layer_4">
	<g>
		<path class="st3" d="M33.3,48.8H165c3.6,0,6.5-2.9,6.5-6.5s-2.9-6.5-6.5-6.5H33.3c-3.6,0-6.5,2.9-6.5,6.5S29.7,48.8,33.3,48.8z"/>
		<circle class="st3" cx="37.2" cy="71.2" r="7.4"/>
		<path class="st3" d="M165,64.7H61c-3.6,0-6.5,2.9-6.5,6.5s2.9,6.5,6.5,6.5h104c3.6,0,6.5-2.9,6.5-6.5S168.6,64.7,165,64.7z"/>
		<circle class="st3" cx="37.2" cy="100" r="7.4"/>
		<path class="st3" d="M33.3,135.3H165c3.6,0,6.5-2.9,6.5-6.5s-2.9-6.5-6.5-6.5H33.3c-3.6,0-6.5,2.9-6.5,6.5S29.7,135.3,33.3,135.3z
			"/>
		<path class="st3" d="M65.1,151.2H33.3c-3.6,0-6.5,2.9-6.5,6.5s2.9,6.5,6.5,6.5h31.8c3.6,0,6.5-2.9,6.5-6.5S68.7,151.2,65.1,151.2z
			"/>
		<path class="st3" d="M167.7,151.2H113c-3.6,0-6.5,2.9-6.5,6.5s2.9,6.5,6.5,6.5h54.6c3.6,0,6.5-2.9,6.5-6.5
			S171.3,151.2,167.7,151.2z"/>
		<circle class="st3" cx="87.8" cy="157.7" r="7.4"/>
		<circle class="st3" cx="58.6" cy="100.3" r="4.3"/>
		<circle class="st3" cx="74.3" cy="100.3" r="1.7"/>
		<path class="st3" d="M85.7,99.1c-0.7,0-1.2,0.5-1.2,1.2c0,0.7,0.5,1.2,1.2,1.2h85.3c0.7,0,1.2-0.5,1.2-1.2c0-0.7-0.5-1.2-1.2-1.2
			H85.7z"/>
	</g>
</g>
<g id="Layer_3" class="st1">
	<g class="st2">
		<path class="st3" d="M179.4,99.6H170V49.6c0-2.9-2.3-5.2-5.2-5.2h-63.4V29.9h-1.8v14.5H36.2c-2.9,0-5.2,2.3-5.2,5.2v50.1h-9.4v1.8
			H31v50.1c0,2.9,2.3,5.2,5.2,5.2h63.4v14.5h1.8v-14.5h63.4c2.9,0,5.2-2.3,5.2-5.2v-50.1h9.4V99.6z M159.6,56.1
			c-0.1-0.5-0.3-0.9-0.4-1.3h0.4V56.1z M136.9,54.7c-0.5,1.3-0.8,2.8-0.8,4.3c0,6.6,5.3,11.9,11.9,11.9c5.6,0,10.2-3.8,11.5-9v37.6
			h-58.2V54.7H136.9z M59.3,54.7c0,0.2,0,0.4,0,0.6c0,2.5,2,4.5,4.5,4.5c2.5,0,4.5-2,4.5-4.5c0-0.2,0-0.4,0-0.6h31.3v44.9H62.7
			c-0.7-0.8-1.5-1.5-2.3-2.2c0.5-0.9,0.8-1.8,0.8-2.9c0-3.1-2.5-5.7-5.7-5.7s-5.7,2.5-5.7,5.7c0,0,0,0.1,0,0.1
			c-3.3,0.4-6.2,2-8.4,4.3V54.7H59.3z M41.4,146.3v-27.4c2.6,2.7,6.3,4.4,10.3,4.4c7.9,0,14.4-6.4,14.4-14.4c0-2.7-0.8-5.3-2.1-7.5
			h35.7v44.9H41.4z M159.6,146.3h-58.2v-44.9h58.2V146.3z"/>
		<circle class="st3" cx="78.3" cy="75.9" r="7.1"/>
		<circle class="st3" cx="126.2" cy="77.7" r="9.2"/>
		<circle class="st3" cx="141.1" cy="121.6" r="14.9"/>
		<circle class="st3" cx="117" cy="133.1" r="5"/>
		<circle class="st3" cx="85.4" cy="120.4" r="8.8"/>
	</g>
</g>
</svg>
